<svg width="352" height="110" viewBox="0 0 352 110" fill="none" xmlns="http://www.w3.org/2000/svg">
<g filter="url(#filter0_d_3_5)">
<path d="M79.0775 77.944C79.7015 77.944 80.1815 78.232 80.5175 78.808C80.9015 79.384 81.0935 80.176 81.0935 81.184C81.0935 83.056 80.6375 84.544 79.7255 85.648C77.4215 88.432 75.0935 90.592 72.7415 92.128C70.3895 93.616 67.6055 94.36 64.3895 94.36C61.2695 94.36 58.6055 93.52 56.3975 91.84C54.2375 90.16 52.1735 87.28 50.2055 83.2C48.6215 79.936 47.3735 77.536 46.4614 76C45.5494 74.416 44.6375 73.288 43.7255 72.616C42.8615 71.944 41.7815 71.536 40.4855 71.392C40.2935 72.4 39.7415 75.568 38.8295 80.896C38.4455 83.296 38.2055 84.76 38.1095 85.288C37.6295 88.216 36.6695 90.472 35.2295 92.056C33.7895 93.592 31.6055 94.36 28.6775 94.36C25.4615 94.36 22.6055 93.424 20.1094 91.552C17.6615 89.632 15.7655 86.992 14.4215 83.632C13.0775 80.224 12.4055 76.36 12.4055 72.04C12.4055 63.976 13.7975 57.016 16.5815 51.16C19.4135 45.304 23.3495 40.84 28.3895 37.768C33.4775 34.648 39.3335 33.088 45.9575 33.088C50.5655 33.088 54.4295 33.784 57.5495 35.176C60.6695 36.568 62.9735 38.488 64.4615 40.936C65.9975 43.384 66.7655 46.144 66.7655 49.216C66.7655 51.904 66.1175 54.544 64.8215 57.136C63.5735 59.68 61.6775 61.936 59.1335 63.904C56.5895 65.872 53.4935 67.336 49.8455 68.296C52.1495 68.92 53.9255 69.928 55.1735 71.32C56.4215 72.712 57.6695 74.752 58.9175 77.44C60.2615 80.32 61.5815 82.432 62.8775 83.776C64.2215 85.12 65.7575 85.792 67.4855 85.792C69.0215 85.792 70.4855 85.288 71.8775 84.28C73.2695 83.224 75.0215 81.448 77.1335 78.952C77.7095 78.28 78.3575 77.944 79.0775 77.944ZM30.5495 71.32C28.9175 71.32 27.7895 70.936 27.1655 70.168C26.5895 69.4 26.3015 68.536 26.3015 67.576C26.3015 66.424 26.6615 65.512 27.3815 64.84C28.1495 64.168 29.0135 63.832 29.9735 63.832H31.7734C32.5415 59.128 33.2615 55.072 33.9334 51.664C34.5575 48.544 36.5735 46.984 39.9815 46.984C42.7175 46.984 44.0855 48.208 44.0855 50.656C44.0855 51.184 44.0615 51.592 44.0135 51.88L41.8535 63.832C44.4455 63.688 46.7975 63.064 48.9095 61.96C51.0695 60.856 52.7735 59.32 54.0215 57.352C55.3175 55.384 55.9655 53.152 55.9655 50.656C55.9655 47.632 54.9335 45.256 52.8695 43.528C50.8055 41.8 47.7815 40.936 43.7975 40.936C39.0935 40.936 34.9655 42.112 31.4135 44.464C27.9095 46.768 25.1735 50.224 23.2055 54.832C21.2375 59.392 20.2535 64.96 20.2535 71.536C20.2535 74.608 20.5655 77.248 21.1894 79.456C21.8135 81.664 22.5815 83.32 23.4935 84.424C24.4055 85.528 25.2695 86.08 26.0855 86.08C26.7095 86.08 27.2135 85.768 27.5975 85.144C28.0295 84.52 28.3655 83.512 28.6054 82.12L30.5495 71.32ZM110.567 71.896C111.191 71.896 111.671 72.208 112.007 72.832C112.343 73.456 112.511 74.248 112.511 75.208C112.511 77.512 111.815 78.88 110.423 79.312C107.543 80.32 104.375 80.896 100.919 81.04C100.007 85.072 98.2068 88.312 95.5188 90.76C92.8308 93.16 89.7828 94.36 86.3748 94.36C83.4948 94.36 81.0228 93.664 78.9588 92.272C76.9428 90.88 75.4068 89.032 74.3508 86.728C73.2948 84.424 72.7668 81.928 72.7668 79.24C72.7668 75.592 73.4628 72.352 74.8548 69.52C76.2468 66.64 78.1668 64.408 80.6148 62.824C83.0628 61.192 85.7748 60.376 88.7508 60.376C92.3988 60.376 95.3268 61.648 97.5348 64.192C99.7908 66.688 101.111 69.784 101.495 73.48C103.751 73.336 106.439 72.856 109.559 72.04C109.943 71.944 110.279 71.896 110.567 71.896ZM86.9508 86.728C88.4868 86.728 89.8068 86.104 90.9108 84.856C92.0628 83.608 92.8308 81.808 93.2148 79.456C91.7268 78.448 90.5748 77.128 89.7588 75.496C88.9908 73.864 88.6068 72.136 88.6068 70.312C88.6068 69.544 88.6788 68.776 88.8228 68.008H88.4628C86.5428 68.008 84.9348 68.944 83.6388 70.816C82.3908 72.64 81.7668 75.232 81.7668 78.592C81.7668 81.232 82.2708 83.248 83.2788 84.64C84.3348 86.032 85.5588 86.728 86.9508 86.728ZM133.619 77.944C134.243 77.944 134.723 78.232 135.059 78.808C135.443 79.384 135.635 80.176 135.635 81.184C135.635 83.104 135.179 84.592 134.267 85.648C132.203 88.192 129.947 90.28 127.499 91.912C125.099 93.544 122.363 94.36 119.291 94.36C115.067 94.36 111.923 92.44 109.859 88.6C107.843 84.76 106.835 79.792 106.835 73.696C106.835 67.84 107.579 61.168 109.067 53.68C110.603 46.192 112.835 39.76 115.763 34.384C118.739 29.008 122.267 26.32 126.347 26.32C128.651 26.32 130.451 27.4 131.747 29.56C133.091 31.672 133.763 34.72 133.763 38.704C133.763 44.416 132.179 51.04 129.011 58.576C125.843 66.112 121.547 73.576 116.123 80.968C116.459 82.936 117.011 84.352 117.779 85.216C118.547 86.032 119.555 86.44 120.803 86.44C122.771 86.44 124.499 85.888 125.987 84.784C127.475 83.632 129.371 81.688 131.675 78.952C132.251 78.28 132.899 77.944 133.619 77.944ZM124.763 33.448C123.659 33.448 122.411 35.44 121.019 39.424C119.627 43.408 118.403 48.352 117.347 54.256C116.291 60.16 115.715 65.824 115.619 71.248C119.027 65.632 121.739 60.016 123.755 54.4C125.771 48.736 126.779 43.576 126.779 38.92C126.779 35.272 126.107 33.448 124.763 33.448ZM150.624 83.848C151.152 83.368 151.68 83.128 152.208 83.128C152.784 83.128 153.24 83.464 153.576 84.136C153.96 84.76 154.152 85.528 154.152 86.44C154.152 88.456 153.432 90.064 151.992 91.264C149.496 93.328 146.664 94.36 143.496 94.36C138.936 94.36 135.6 92.464 133.488 88.672C131.376 84.832 130.32 79.84 130.32 73.696C130.32 67.84 131.064 61.168 132.552 53.68C134.088 46.192 136.32 39.76 139.248 34.384C142.224 29.008 145.752 26.32 149.832 26.32C152.136 26.32 153.936 27.4 155.232 29.56C156.576 31.672 157.248 34.72 157.248 38.704C157.248 44.416 155.664 51.04 152.496 58.576C149.376 66.112 145.104 73.552 139.68 80.896C140.016 82.864 140.616 84.28 141.48 85.144C142.344 86.008 143.52 86.44 145.008 86.44C145.824 86.44 146.736 86.2 147.744 85.72C148.8 85.24 149.76 84.616 150.624 83.848ZM148.248 33.448C147.144 33.448 145.896 35.44 144.504 39.424C143.112 43.408 141.888 48.352 140.832 54.256C139.776 60.16 139.2 65.824 139.104 71.248C142.512 65.632 145.224 60.016 147.24 54.4C149.256 48.736 150.264 43.576 150.264 38.92C150.264 35.272 149.592 33.448 148.248 33.448ZM165.866 51.16C164.81 51.16 163.97 50.92 163.346 50.44C162.722 49.96 162.41 49.192 162.41 48.136C162.41 47.704 162.482 47.2 162.626 46.624C163.154 44.416 163.538 42.376 163.778 40.504C164.066 38.632 164.21 36.544 164.21 34.24C164.21 31.84 164.762 29.992 165.866 28.696C167.018 27.4 168.482 26.752 170.258 26.752C171.986 26.752 173.282 27.232 174.146 28.192C175.058 29.104 175.514 30.352 175.514 31.936C175.514 33.616 175.01 35.848 174.002 38.632C172.994 41.416 171.77 44.128 170.33 46.768C169.37 48.544 168.602 49.72 168.026 50.296C167.498 50.872 166.778 51.16 165.866 51.16ZM184.177 55.696C182.161 55.696 180.649 55.24 179.641 54.328C178.633 53.368 178.129 52.048 178.129 50.368C178.129 48.688 178.777 47.296 180.073 46.192C181.417 45.04 183.073 44.464 185.041 44.464C186.817 44.464 188.257 44.896 189.361 45.76C190.465 46.624 191.017 47.848 191.017 49.432C191.017 51.352 190.393 52.888 189.145 54.04C187.897 55.144 186.241 55.696 184.177 55.696ZM183.601 94.36C180.481 94.36 178.201 93.256 176.761 91.048C175.369 88.84 174.673 85.912 174.673 82.264C174.673 80.104 174.937 77.344 175.465 73.984C176.041 70.576 176.761 67.408 177.625 64.48C178.057 62.944 178.633 61.888 179.353 61.312C180.073 60.736 181.225 60.448 182.809 60.448C185.257 60.448 186.481 61.264 186.481 62.896C186.481 64.096 186.025 66.88 185.113 71.248C183.961 76.528 183.385 80.104 183.385 81.976C183.385 83.416 183.577 84.52 183.961 85.288C184.345 86.056 184.993 86.44 185.905 86.44C186.769 86.44 187.849 85.84 189.145 84.64C190.441 83.44 192.169 81.544 194.329 78.952C194.905 78.28 195.553 77.944 196.273 77.944C196.897 77.944 197.377 78.232 197.713 78.808C198.097 79.384 198.289 80.176 198.289 81.184C198.289 83.104 197.833 84.592 196.921 85.648C192.169 91.456 187.729 94.36 183.601 94.36ZM197.576 94.36C195.752 94.36 194.456 93.4 193.688 91.48C192.968 89.56 192.608 86.488 192.608 82.264C192.608 76.024 193.496 70.096 195.272 64.48C195.704 63.088 196.4 62.08 197.36 61.456C198.368 60.784 199.76 60.448 201.536 60.448C202.496 60.448 203.168 60.568 203.552 60.808C203.936 61.048 204.128 61.504 204.128 62.176C204.128 62.944 203.768 64.672 203.048 67.36C202.568 69.28 202.184 70.96 201.896 72.4C201.608 73.84 201.368 75.616 201.176 77.728C202.76 73.6 204.536 70.24 206.504 67.648C208.472 65.056 210.392 63.208 212.264 62.104C214.184 61 215.936 60.448 217.52 60.448C219.056 60.448 220.208 60.856 220.976 61.672C221.792 62.44 222.2 63.592 222.2 65.128C222.2 66.376 221.936 68.728 221.408 72.184C220.928 75.112 220.544 77.896 220.256 80.536C219.968 83.128 219.824 86.032 219.824 89.248C219.824 91.072 219.44 92.392 218.672 93.208C217.952 93.976 216.752 94.36 215.072 94.36C213.488 94.36 212.336 93.952 211.616 93.136C210.896 92.32 210.536 91.096 210.536 89.464C210.536 87.544 210.872 84.376 211.544 79.96C212.12 76.12 212.408 73.672 212.408 72.616C212.408 71.848 212.144 71.464 211.616 71.464C210.992 71.464 210.104 72.28 208.952 73.912C207.848 75.496 206.696 77.608 205.496 80.248C204.344 82.888 203.408 85.672 202.688 88.6C202.16 90.856 201.536 92.392 200.816 93.208C200.144 93.976 199.064 94.36 197.576 94.36Z" fill="#FF0000"/>
<path d="M71.632 77.944C72.256 77.944 72.736 78.232 73.072 78.808C73.456 79.384 73.648 80.176 73.648 81.184C73.648 83.056 73.192 84.544 72.28 85.648C69.976 88.432 67.648 90.592 65.296 92.128C62.944 93.616 60.16 94.36 56.944 94.36C53.824 94.36 51.16 93.52 48.952 91.84C46.792 90.16 44.728 87.28 42.76 83.2C41.176 79.936 39.928 77.536 39.016 76C38.104 74.416 37.192 73.288 36.28 72.616C35.416 71.944 34.336 71.536 33.04 71.392C32.848 72.4 32.296 75.568 31.384 80.896C31 83.296 30.76 84.76 30.664 85.288C30.184 88.216 29.224 90.472 27.784 92.056C26.344 93.592 24.16 94.36 21.232 94.36C18.016 94.36 15.16 93.424 12.664 91.552C10.216 89.632 8.32 86.992 6.976 83.632C5.632 80.224 4.96 76.36 4.96 72.04C4.96 63.976 6.352 57.016 9.136 51.16C11.968 45.304 15.904 40.84 20.944 37.768C26.032 34.648 31.888 33.088 38.512 33.088C43.12 33.088 46.984 33.784 50.104 35.176C53.224 36.568 55.528 38.488 57.016 40.936C58.552 43.384 59.32 46.144 59.32 49.216C59.32 51.904 58.672 54.544 57.376 57.136C56.128 59.68 54.232 61.936 51.688 63.904C49.144 65.872 46.048 67.336 42.4 68.296C44.704 68.92 46.48 69.928 47.728 71.32C48.976 72.712 50.224 74.752 51.472 77.44C52.816 80.32 54.136 82.432 55.432 83.776C56.776 85.12 58.312 85.792 60.04 85.792C61.576 85.792 63.04 85.288 64.432 84.28C65.824 83.224 67.576 81.448 69.688 78.952C70.264 78.28 70.912 77.944 71.632 77.944ZM23.104 71.32C21.472 71.32 20.344 70.936 19.72 70.168C19.144 69.4 18.856 68.536 18.856 67.576C18.856 66.424 19.216 65.512 19.936 64.84C20.704 64.168 21.568 63.832 22.528 63.832H24.328C25.096 59.128 25.816 55.072 26.488 51.664C27.112 48.544 29.128 46.984 32.536 46.984C35.272 46.984 36.64 48.208 36.64 50.656C36.64 51.184 36.616 51.592 36.568 51.88L34.408 63.832C37 63.688 39.352 63.064 41.464 61.96C43.624 60.856 45.328 59.32 46.576 57.352C47.872 55.384 48.52 53.152 48.52 50.656C48.52 47.632 47.488 45.256 45.424 43.528C43.36 41.8 40.336 40.936 36.352 40.936C31.648 40.936 27.52 42.112 23.968 44.464C20.464 46.768 17.728 50.224 15.76 54.832C13.792 59.392 12.808 64.96 12.808 71.536C12.808 74.608 13.12 77.248 13.744 79.456C14.368 81.664 15.136 83.32 16.048 84.424C16.96 85.528 17.824 86.08 18.64 86.08C19.264 86.08 19.768 85.768 20.152 85.144C20.584 84.52 20.92 83.512 21.16 82.12L23.104 71.32ZM103.121 71.896C103.745 71.896 104.225 72.208 104.561 72.832C104.897 73.456 105.065 74.248 105.065 75.208C105.065 77.512 104.369 78.88 102.977 79.312C100.097 80.32 96.9293 80.896 93.4733 81.04C92.5613 85.072 90.7613 88.312 88.0733 90.76C85.3853 93.16 82.3373 94.36 78.9293 94.36C76.0493 94.36 73.5773 93.664 71.5133 92.272C69.4973 90.88 67.9613 89.032 66.9053 86.728C65.8493 84.424 65.3213 81.928 65.3213 79.24C65.3213 75.592 66.0173 72.352 67.4093 69.52C68.8013 66.64 70.7213 64.408 73.1693 62.824C75.6173 61.192 78.3293 60.376 81.3053 60.376C84.9533 60.376 87.8813 61.648 90.0893 64.192C92.3453 66.688 93.6653 69.784 94.0493 73.48C96.3053 73.336 98.9933 72.856 102.113 72.04C102.497 71.944 102.833 71.896 103.121 71.896ZM79.5053 86.728C81.0413 86.728 82.3613 86.104 83.4653 84.856C84.6173 83.608 85.3853 81.808 85.7693 79.456C84.2813 78.448 83.1293 77.128 82.3133 75.496C81.5453 73.864 81.1613 72.136 81.1613 70.312C81.1613 69.544 81.2333 68.776 81.3773 68.008H81.0173C79.0973 68.008 77.4893 68.944 76.1933 70.816C74.9453 72.64 74.3213 75.232 74.3213 78.592C74.3213 81.232 74.8253 83.248 75.8333 84.64C76.8893 86.032 78.1133 86.728 79.5053 86.728ZM126.174 77.944C126.798 77.944 127.278 78.232 127.614 78.808C127.998 79.384 128.19 80.176 128.19 81.184C128.19 83.104 127.734 84.592 126.822 85.648C124.758 88.192 122.502 90.28 120.054 91.912C117.654 93.544 114.918 94.36 111.846 94.36C107.622 94.36 104.478 92.44 102.414 88.6C100.398 84.76 99.3897 79.792 99.3897 73.696C99.3897 67.84 100.134 61.168 101.622 53.68C103.158 46.192 105.39 39.76 108.318 34.384C111.294 29.008 114.822 26.32 118.902 26.32C121.206 26.32 123.006 27.4 124.302 29.56C125.646 31.672 126.318 34.72 126.318 38.704C126.318 44.416 124.734 51.04 121.566 58.576C118.398 66.112 114.102 73.576 108.678 80.968C109.014 82.936 109.566 84.352 110.334 85.216C111.102 86.032 112.11 86.44 113.358 86.44C115.326 86.44 117.054 85.888 118.542 84.784C120.03 83.632 121.926 81.688 124.23 78.952C124.806 78.28 125.454 77.944 126.174 77.944ZM117.318 33.448C116.214 33.448 114.966 35.44 113.574 39.424C112.182 43.408 110.958 48.352 109.902 54.256C108.846 60.16 108.27 65.824 108.174 71.248C111.582 65.632 114.294 60.016 116.31 54.4C118.326 48.736 119.334 43.576 119.334 38.92C119.334 35.272 118.662 33.448 117.318 33.448ZM143.178 83.848C143.706 83.368 144.234 83.128 144.762 83.128C145.338 83.128 145.794 83.464 146.13 84.136C146.514 84.76 146.706 85.528 146.706 86.44C146.706 88.456 145.986 90.064 144.546 91.264C142.05 93.328 139.218 94.36 136.05 94.36C131.49 94.36 128.154 92.464 126.042 88.672C123.93 84.832 122.874 79.84 122.874 73.696C122.874 67.84 123.618 61.168 125.106 53.68C126.642 46.192 128.874 39.76 131.802 34.384C134.778 29.008 138.306 26.32 142.386 26.32C144.69 26.32 146.49 27.4 147.786 29.56C149.13 31.672 149.802 34.72 149.802 38.704C149.802 44.416 148.218 51.04 145.05 58.576C141.93 66.112 137.658 73.552 132.234 80.896C132.57 82.864 133.17 84.28 134.034 85.144C134.898 86.008 136.074 86.44 137.562 86.44C138.378 86.44 139.29 86.2 140.298 85.72C141.354 85.24 142.314 84.616 143.178 83.848ZM140.802 33.448C139.698 33.448 138.45 35.44 137.058 39.424C135.666 43.408 134.442 48.352 133.386 54.256C132.33 60.16 131.754 65.824 131.658 71.248C135.066 65.632 137.778 60.016 139.794 54.4C141.81 48.736 142.818 43.576 142.818 38.92C142.818 35.272 142.146 33.448 140.802 33.448ZM158.42 51.16C157.364 51.16 156.524 50.92 155.9 50.44C155.276 49.96 154.964 49.192 154.964 48.136C154.964 47.704 155.036 47.2 155.18 46.624C155.708 44.416 156.092 42.376 156.332 40.504C156.62 38.632 156.764 36.544 156.764 34.24C156.764 31.84 157.316 29.992 158.42 28.696C159.572 27.4 161.036 26.752 162.812 26.752C164.54 26.752 165.836 27.232 166.7 28.192C167.612 29.104 168.068 30.352 168.068 31.936C168.068 33.616 167.564 35.848 166.556 38.632C165.548 41.416 164.324 44.128 162.884 46.768C161.924 48.544 161.156 49.72 160.58 50.296C160.052 50.872 159.332 51.16 158.42 51.16ZM176.732 55.696C174.716 55.696 173.204 55.24 172.196 54.328C171.188 53.368 170.684 52.048 170.684 50.368C170.684 48.688 171.332 47.296 172.628 46.192C173.972 45.04 175.628 44.464 177.596 44.464C179.372 44.464 180.812 44.896 181.916 45.76C183.02 46.624 183.572 47.848 183.572 49.432C183.572 51.352 182.948 52.888 181.7 54.04C180.452 55.144 178.796 55.696 176.732 55.696ZM176.156 94.36C173.036 94.36 170.756 93.256 169.316 91.048C167.924 88.84 167.228 85.912 167.228 82.264C167.228 80.104 167.492 77.344 168.02 73.984C168.596 70.576 169.316 67.408 170.18 64.48C170.612 62.944 171.188 61.888 171.908 61.312C172.628 60.736 173.78 60.448 175.364 60.448C177.812 60.448 179.036 61.264 179.036 62.896C179.036 64.096 178.58 66.88 177.668 71.248C176.516 76.528 175.94 80.104 175.94 81.976C175.94 83.416 176.132 84.52 176.516 85.288C176.9 86.056 177.548 86.44 178.46 86.44C179.324 86.44 180.404 85.84 181.7 84.64C182.996 83.44 184.724 81.544 186.884 78.952C187.46 78.28 188.108 77.944 188.828 77.944C189.452 77.944 189.932 78.232 190.268 78.808C190.652 79.384 190.844 80.176 190.844 81.184C190.844 83.104 190.388 84.592 189.476 85.648C184.724 91.456 180.284 94.36 176.156 94.36ZM190.131 94.36C188.307 94.36 187.011 93.4 186.243 91.48C185.523 89.56 185.163 86.488 185.163 82.264C185.163 76.024 186.051 70.096 187.827 64.48C188.259 63.088 188.955 62.08 189.915 61.456C190.923 60.784 192.315 60.448 194.091 60.448C195.051 60.448 195.723 60.568 196.107 60.808C196.491 61.048 196.683 61.504 196.683 62.176C196.683 62.944 196.323 64.672 195.603 67.36C195.123 69.28 194.739 70.96 194.451 72.4C194.163 73.84 193.923 75.616 193.731 77.728C195.315 73.6 197.091 70.24 199.059 67.648C201.027 65.056 202.947 63.208 204.819 62.104C206.739 61 208.491 60.448 210.075 60.448C211.611 60.448 212.763 60.856 213.531 61.672C214.347 62.44 214.755 63.592 214.755 65.128C214.755 66.376 214.491 68.728 213.963 72.184C213.483 75.112 213.099 77.896 212.811 80.536C212.523 83.128 212.379 86.032 212.379 89.248C212.379 91.072 211.995 92.392 211.227 93.208C210.507 93.976 209.307 94.36 207.627 94.36C206.043 94.36 204.891 93.952 204.171 93.136C203.451 92.32 203.091 91.096 203.091 89.464C203.091 87.544 203.427 84.376 204.099 79.96C204.675 76.12 204.963 73.672 204.963 72.616C204.963 71.848 204.699 71.464 204.171 71.464C203.547 71.464 202.659 72.28 201.507 73.912C200.403 75.496 199.251 77.608 198.051 80.248C196.899 82.888 195.963 85.672 195.243 88.6C194.715 90.856 194.091 92.392 193.371 93.208C192.699 93.976 191.619 94.36 190.131 94.36Z" fill="#EBFF00"/>
</g>
<defs>
<filter id="filter0_d_3_5" x="0.960007" y="26.32" width="225.24" height="76.04" filterUnits="userSpaceOnUse" color-interpolation-filters="sRGB">
<feFlood flood-opacity="0" result="BackgroundImageFix"/>
<feColorMatrix in="SourceAlpha" type="matrix" values="0 0 0 0 0 0 0 0 0 0 0 0 0 0 0 0 0 0 127 0" result="hardAlpha"/>
<feOffset dy="4"/>
<feGaussianBlur stdDeviation="2"/>
<feComposite in2="hardAlpha" operator="out"/>
<feColorMatrix type="matrix" values="0 0 0 0 0 0 0 0 0 0 0 0 0 0 0 0 0 0 0.25 0"/>
<feBlend mode="normal" in2="BackgroundImageFix" result="effect1_dropShadow_3_5"/>
<feBlend mode="normal" in="SourceGraphic" in2="effect1_dropShadow_3_5" result="shape"/>
</filter>
</defs>
</svg>
